<svg width="17" height="25" viewBox="0 0 17 25" fill="none" xmlns="http://www.w3.org/2000/svg">
<path d="M12.5049 8.33496C13.6102 8.33496 14.6702 7.89589 15.4517 7.11433C16.2333 6.33278 16.6724 5.27276 16.6724 4.16748C16.6724 3.0622 16.2333 2.00218 15.4517 1.22063C14.6702 0.439073 13.6102 0 12.5049 0L4.16992 0C3.06529 0 2.00589 0.438815 1.2248 1.21991C0.443699 2.00101 0.00488395 3.0604 0.00488395 4.16504C0.00488395 5.26968 0.443699 6.32907 1.2248 7.11017C2.00589 7.89126 3.06529 8.33008 4.16992 8.33008C3.06464 8.33008 2.00462 8.76915 1.22307 9.5507C0.441515 10.3323 0.00244258 11.3923 0.00244258 12.4976C0.00244258 13.6028 0.441515 14.6629 1.22307 15.4444C2.00462 16.226 3.06464 16.665 4.16992 16.665C3.34567 16.6646 2.53979 16.9085 1.85418 17.366C1.16858 17.8236 0.63404 18.4741 0.318167 19.2354C0.00229457 19.9968 -0.0807263 20.8347 0.0796033 21.6432C0.239933 22.4517 0.636412 23.1945 1.2189 23.7776C1.80139 24.3608 2.54374 24.7582 3.35205 24.9194C4.16037 25.0807 4.99836 24.9987 5.76005 24.6837C6.52174 24.3687 7.17293 23.8349 7.63126 23.1499C8.08959 22.4648 8.33448 21.6592 8.33496 20.835V8.33496H12.5049ZM12.5049 8.33496C11.6811 8.33496 10.8758 8.57924 10.1909 9.0369C9.50598 9.49456 8.97213 10.145 8.65689 10.9061C8.34165 11.6672 8.25917 12.5046 8.41988 13.3126C8.58058 14.1205 8.97727 14.8626 9.55976 15.4451C10.1422 16.0276 10.8844 16.4243 11.6923 16.585C12.5003 16.7457 13.3377 16.6632 14.0988 16.348C14.8598 16.0328 15.5103 15.4989 15.968 14.814C16.4256 14.129 16.6699 13.3238 16.6699 12.5C16.6698 11.3954 16.2309 10.3361 15.4499 9.55502C14.6688 8.77395 13.6095 8.33509 12.5049 8.33496Z" fill="#FAFAFA"/>
</svg>
