<svg width="22" height="22" viewBox="0 0 22 22" fill="none" xmlns="http://www.w3.org/2000/svg">
<path d="M0 0V21.875H21.875V0H0ZM11.9043 17.0605C11.9043 19.1895 10.6543 20.1611 8.83301 20.1611C7.1875 20.1611 6.23535 19.3115 5.74707 18.2812L7.42188 17.2705C7.74414 17.8418 8.03711 18.3252 8.74512 18.3252C9.41895 18.3252 9.84863 18.0615 9.84863 17.0312V10.0439H11.9043V17.0605V17.0605ZM16.7676 20.1611C14.8584 20.1611 13.623 19.2529 13.0225 18.0615L14.6973 17.0947C15.1367 17.8125 15.7129 18.3447 16.7236 18.3447C17.5732 18.3447 18.1201 17.9199 18.1201 17.3291C18.1201 16.626 17.5635 16.377 16.6211 15.9619L16.1084 15.7422C14.624 15.1123 13.6426 14.3164 13.6426 12.6416C13.6426 11.0986 14.8193 9.92676 16.6504 9.92676C17.959 9.92676 18.8965 10.3809 19.5703 11.5723L17.9688 12.5977C17.6172 11.9678 17.2363 11.7188 16.6455 11.7188C16.0449 11.7188 15.6641 12.0996 15.6641 12.5977C15.6641 13.2129 16.0449 13.4619 16.9287 13.8477L17.4414 14.0674C19.1895 14.8145 20.1709 15.5811 20.1709 17.2998C20.1709 19.1455 18.7158 20.1611 16.7676 20.1611V20.1611Z" fill="#FAFAFA"/>
</svg>
