<svg width="21" height="21" viewBox="0 0 21 21" fill="none" xmlns="http://www.w3.org/2000/svg">
<path d="M10.5 0C4.725 0 0 4.725 0 10.5C0 16.275 4.725 21 10.5 21C16.275 21 21 16.275 21 10.5C21 4.725 16.275 0 10.5 0ZM4.65 16.35C3.075 14.775 2.25 12.675 2.25 10.65L10.425 18.75C8.325 18.675 6.225 17.925 4.65 16.35ZM12.3 18.525L2.475 8.7C3.3 5.025 6.6 2.25 10.5 2.25C13.275 2.25 15.675 3.6 17.175 5.625L16.05 6.6C14.775 4.875 12.75 3.75 10.5 3.75C7.575 3.75 5.1 5.625 4.125 8.25L12.75 16.875C14.925 16.125 16.575 14.25 17.1 12H13.5V10.5H18.75C18.75 14.4 15.975 17.7 12.3 18.525Z" fill="white"/>
</svg>
