<svg width="23" height="23" viewBox="0 0 23 23" fill="none" xmlns="http://www.w3.org/2000/svg">
<path d="M16.6689 7.9816L16.6605 7.978C16.6557 7.9762 16.6508 7.9744 16.6466 7.9702C16.6398 7.96281 16.6347 7.95394 16.6317 7.94426C16.6288 7.93459 16.6282 7.92438 16.6298 7.91442L17.094 5.07954L19.2709 7.25459L17.0069 8.21674C17.0007 8.21927 16.9939 8.2205 16.9871 8.22034H16.9781C16.9751 8.21854 16.9721 8.21614 16.9661 8.21014C16.8819 8.11644 16.7811 8.03897 16.6689 7.9816V7.9816ZM19.8263 7.80884L22.1539 10.1339C22.6373 10.6173 22.8793 10.8585 22.9676 11.138C22.9808 11.1794 22.9916 11.2208 23 11.2634L17.4375 8.91016C17.4345 8.90893 17.4315 8.90773 17.4285 8.90656C17.4063 8.89757 17.3805 8.88737 17.3805 8.86457C17.3805 8.84178 17.4069 8.83098 17.4291 8.82199L17.4363 8.81899L19.8263 7.80884V7.80884ZM22.9051 12.0096C22.785 12.2351 22.5508 12.4691 22.1545 12.8656L19.5303 15.4863L16.1362 14.7803L16.1182 14.7767C16.0882 14.7719 16.0563 14.7665 16.0563 14.7395C16.0435 14.5996 16.0019 14.4639 15.9342 14.3408C15.8665 14.2177 15.7742 14.1098 15.663 14.0239C15.6492 14.0101 15.6528 13.9885 15.657 13.9687C15.657 13.9657 15.657 13.9627 15.6582 13.9603L16.2965 10.0457L16.2989 10.0325C16.3026 10.0025 16.308 9.96769 16.335 9.96769C16.4718 9.95069 16.6038 9.90667 16.7234 9.83819C16.843 9.7697 16.9478 9.67812 17.0316 9.56879C17.037 9.5628 17.0406 9.5562 17.0478 9.5526C17.067 9.5436 17.0898 9.5526 17.1096 9.561L22.9045 12.0096H22.9051ZM18.9268 16.0891L14.6115 20.3996L15.3501 15.8648L15.3513 15.8588C15.352 15.8528 15.3532 15.8468 15.355 15.8414C15.361 15.827 15.3766 15.821 15.3916 15.815L15.3988 15.812C15.5605 15.7431 15.7036 15.6368 15.8161 15.5019C15.8306 15.4851 15.848 15.4689 15.8702 15.4659C15.876 15.4649 15.8818 15.4649 15.8876 15.4659L18.9262 16.0897L18.9268 16.0891ZM13.6982 21.312L13.2117 21.7979L7.83421 14.0347C7.83226 14.0318 7.83026 14.029 7.8282 14.0263C7.8198 14.0149 7.81079 14.0035 7.81259 13.9903C7.81319 13.9807 7.8192 13.9723 7.8258 13.9651L7.83181 13.9573C7.84802 13.9333 7.86183 13.9093 7.87684 13.8835L7.88885 13.8625L7.89066 13.8607C7.89906 13.8463 7.90687 13.8325 7.92128 13.8247C7.93389 13.8187 7.95131 13.8211 7.96512 13.8241L13.9227 15.0514C13.9394 15.054 13.9551 15.0608 13.9684 15.0712C13.9762 15.079 13.978 15.0874 13.9798 15.097C14.0213 15.254 14.0987 15.3994 14.2058 15.5216C14.3129 15.6439 14.4468 15.7398 14.5971 15.8018C14.6139 15.8102 14.6067 15.8288 14.5989 15.8486C14.595 15.8573 14.592 15.8663 14.5899 15.8756C14.5148 16.3315 13.8711 20.2533 13.6982 21.312ZM12.6821 22.3263C12.3236 22.6808 12.1122 22.8686 11.8732 22.9442C11.6376 23.0186 11.3847 23.0186 11.149 22.9442C10.8692 22.8554 10.6272 22.6143 10.1438 22.1308L4.7434 16.7364L6.15399 14.5511C6.1606 14.5403 6.1672 14.5307 6.17801 14.5229C6.19302 14.5121 6.21464 14.5169 6.23266 14.5229C6.55643 14.6205 6.90405 14.6029 7.21629 14.4731C7.2325 14.4671 7.24871 14.4629 7.26133 14.4743C7.26763 14.4801 7.27327 14.4865 7.27814 14.4935L12.6821 22.3269V22.3263ZM4.22276 16.2163L2.98392 14.9788L5.43038 13.9363C5.43663 13.9336 5.44338 13.9321 5.4502 13.9321C5.47061 13.9321 5.48262 13.9525 5.49343 13.9711C5.51802 14.0089 5.54406 14.0457 5.5715 14.0814L5.57931 14.091C5.58651 14.1012 5.58171 14.1114 5.5745 14.121L4.22336 16.2163H4.22276ZM2.43565 14.4312L0.868332 12.8656C0.601708 12.5992 0.408344 12.4061 0.273831 12.2399L5.03945 13.2273C5.04544 13.2284 5.05144 13.2294 5.05747 13.2303C5.08689 13.2351 5.11932 13.2405 5.11932 13.268C5.11932 13.298 5.08389 13.3118 5.05386 13.3232L5.04005 13.3292L2.43565 14.4312ZM0 11.4349C0.00543108 11.3341 0.0235899 11.2343 0.0540456 11.138C0.142921 10.8585 0.384324 10.6173 0.868332 10.1339L2.87402 8.13036C3.7975 9.46915 4.72349 10.8062 5.65197 12.1415C5.66818 12.1631 5.6862 12.1871 5.66758 12.2051C5.57991 12.3017 5.49223 12.4073 5.43038 12.5218C5.42367 12.5366 5.41334 12.5494 5.40036 12.559C5.39255 12.5638 5.38414 12.562 5.37513 12.5602H5.37393L0 11.4343V11.4349ZM3.41088 7.5941L6.10775 4.90019C6.36117 5.01116 7.28354 5.40046 8.10864 5.74837C8.73317 6.0123 9.30245 6.25224 9.4814 6.33022C9.49941 6.33742 9.51563 6.34462 9.52343 6.36261C9.52824 6.37341 9.52584 6.38721 9.52343 6.3986C9.48074 6.59306 9.48709 6.79506 9.54191 6.98646C9.59673 7.17786 9.6983 7.35265 9.8375 7.49512C9.85551 7.51312 9.8375 7.53891 9.82189 7.56111L9.81348 7.5737L7.07517 11.8104C7.06796 11.8224 7.06136 11.8326 7.04935 11.8404C7.03493 11.8494 7.01452 11.8452 6.9977 11.841C6.8912 11.8131 6.78171 11.7982 6.67163 11.7966C6.57314 11.7966 6.46625 11.8146 6.35816 11.8344H6.35756C6.34555 11.8362 6.33474 11.8386 6.32514 11.8314C6.31452 11.8228 6.3054 11.8124 6.29811 11.8008L3.41088 7.5941V7.5941ZM6.65241 4.35613L10.1438 0.868619C10.6272 0.385742 10.8692 0.144004 11.149 0.0558263C11.3847 -0.0186088 11.6376 -0.0186088 11.8732 0.0558263C12.1531 0.144004 12.3951 0.385742 12.8785 0.868619L13.6351 1.62443L11.152 5.46584C11.1459 5.47703 11.1375 5.48683 11.1274 5.49464C11.1124 5.50483 11.0914 5.50063 11.0733 5.49464C10.8776 5.43529 10.6703 5.42448 10.4694 5.46316C10.2685 5.50183 10.08 5.58881 9.92037 5.71658C9.90415 5.73337 9.88013 5.72378 9.85972 5.71478C9.53544 5.57382 7.01332 4.50909 6.65241 4.35613V4.35613ZM14.1623 2.15109L16.4551 4.44131L15.9026 7.85923V7.86823C15.9021 7.87602 15.9005 7.8837 15.8978 7.89102C15.8918 7.90302 15.8798 7.90542 15.8678 7.90902C15.7497 7.94476 15.6384 8.00012 15.5387 8.07278C15.5344 8.07583 15.5304 8.07924 15.5267 8.08297C15.5201 8.09017 15.5135 8.09677 15.5027 8.09797C15.4939 8.09824 15.4851 8.09682 15.4769 8.09377L11.9831 6.61095L11.9765 6.60795C11.9543 6.59895 11.9279 6.58816 11.9279 6.56536C11.9073 6.37088 11.8437 6.1834 11.7417 6.0165C11.7249 5.98891 11.7063 5.96012 11.7207 5.93192L14.1623 2.15109V2.15109ZM11.8012 7.31337L15.0763 8.69902C15.0943 8.70741 15.1141 8.71521 15.122 8.73381C15.1251 8.74499 15.1251 8.75682 15.122 8.768C15.1123 8.81599 15.1039 8.87057 15.1039 8.92576V9.01754C15.1039 9.04033 15.0805 9.04993 15.0589 9.05892L15.0523 9.06132C14.5335 9.28267 7.76815 12.1643 7.75794 12.1643C7.74774 12.1643 7.73693 12.1643 7.72672 12.1541C7.7087 12.1361 7.72672 12.1109 7.74293 12.0882C7.7458 12.0842 7.7486 12.0802 7.75134 12.0762L10.4428 7.91322L10.4476 7.90602C10.4632 7.88083 10.4812 7.85263 10.5101 7.85263L10.5371 7.85683C10.5983 7.86523 10.6524 7.87303 10.707 7.87303C11.1154 7.87303 11.4937 7.67448 11.7219 7.33497C11.7273 7.3259 11.7342 7.31779 11.7423 7.31097C11.7585 7.29897 11.7825 7.30497 11.8012 7.31337V7.31337ZM8.05039 12.823L15.4246 9.68157C15.4246 9.68157 15.4354 9.68157 15.4456 9.69176C15.4859 9.73195 15.5201 9.75895 15.5531 9.78414L15.5693 9.79434C15.5843 9.80273 15.5994 9.81233 15.6006 9.82793C15.6006 9.83393 15.6006 9.83753 15.5994 9.84293L14.9676 13.7191L14.9652 13.7347C14.961 13.7647 14.9568 13.7989 14.9286 13.7989C14.7602 13.8103 14.5971 13.8625 14.4534 13.951C14.3097 14.0395 14.1898 14.1617 14.1041 14.307L14.1011 14.3118C14.0927 14.3256 14.0849 14.3388 14.0711 14.346C14.0585 14.352 14.0422 14.3496 14.029 14.3466L8.14827 13.1349C8.14227 13.1337 8.057 12.8236 8.05039 12.823V12.823Z" fill="#FAFAFA"/>
</svg>
