<svg width="25" height="19" viewBox="0 0 25 19" fill="none" xmlns="http://www.w3.org/2000/svg">
<path d="M11.7905 14.1764C11.7788 14.1998 11.767 14.2186 11.7905 14.1764V14.1764ZM21.5221 10.778C20.7365 10.7777 19.9613 10.9581 19.2565 11.3053C19.026 10.8405 18.7878 10.4342 18.7487 10.1295C18.7018 9.77405 18.651 9.56312 18.7057 9.14124C18.7604 8.71937 19.0065 8.12171 19.0026 8.07874C18.9987 8.03577 18.9479 7.82093 18.444 7.81702C17.9401 7.81312 17.5065 7.91468 17.4561 8.04749C17.3671 8.29021 17.2979 8.53971 17.2491 8.79358C17.1592 9.25062 16.2417 10.8834 15.7221 11.735C15.5503 11.403 15.4057 11.11 15.3745 10.8756C15.3276 10.5201 15.2768 10.3092 15.3315 9.88733C15.3862 9.46546 15.6323 8.8678 15.6284 8.82483C15.6245 8.78187 15.5737 8.56702 15.0702 8.56312C14.5667 8.55921 14.1327 8.66077 14.0819 8.79358C14.0311 8.9264 13.9764 9.2389 13.8749 9.53968C13.7733 9.84046 12.551 12.5592 12.2311 13.2662C12.067 13.6256 11.9264 13.9147 11.8249 14.11C11.8092 14.1412 11.7975 14.1608 11.7897 14.1764C11.8014 14.1569 11.8092 14.1373 11.8092 14.1451C11.7233 14.3131 11.6725 14.4069 11.6725 14.4069V14.4108C11.6061 14.5358 11.5319 14.6491 11.4967 14.6491C11.4733 14.6491 11.4225 14.3209 11.5085 13.8717C11.692 12.9264 12.1256 11.4576 12.1217 11.4069C12.1178 11.3795 12.2038 11.1256 11.8366 10.9889C11.4811 10.86 11.3522 11.0748 11.321 11.0748C11.2897 11.0748 11.2663 11.153 11.2663 11.153C11.2663 11.153 11.6608 9.49671 10.5088 9.49671C9.79009 9.49671 8.79009 10.2858 8.29869 11.0006C7.99009 11.1686 7.32213 11.5319 6.619 11.9186C6.34947 12.067 6.07213 12.2194 5.81041 12.3639C5.79088 12.3444 5.77525 12.3248 5.75572 12.3053C4.35767 10.8131 1.77642 9.75843 1.8858 7.75452C1.92486 7.02405 2.17877 5.10608 6.84947 2.77796C10.6776 0.871709 13.7381 1.39515 14.2651 2.55921C15.0229 4.21937 12.6288 7.30921 8.65338 7.75452C7.13814 7.92249 6.34166 7.33655 6.14244 7.1178C5.93541 6.88733 5.90416 6.87562 5.82603 6.91858C5.69713 6.9889 5.77916 7.19202 5.82603 7.31312C5.94322 7.62171 6.4315 8.16858 7.26314 8.44202C7.99361 8.6803 9.77017 8.81312 11.9182 7.98108C14.3315 7.0514 16.21 4.46155 15.6592 2.29358C15.0983 0.0904593 11.4452 -0.632197 7.99088 0.594365C5.93267 1.32483 3.70689 2.47327 2.10572 3.96937C0.203767 5.75062 -0.10053 7.3014 0.0244702 7.94983C0.469392 10.2506 3.64049 11.7506 4.90963 12.86C4.84713 12.8951 4.78853 12.9264 4.73385 12.9576C4.09752 13.2741 1.67994 14.5397 1.07486 15.8756C0.391267 17.3912 1.18814 18.4772 1.71119 18.6256C3.34361 19.0787 5.0151 18.2623 5.91314 16.9225C6.81119 15.5826 6.7022 13.8326 6.28814 13.0358C6.28424 13.0241 6.27642 13.0162 6.27252 13.0045C6.43658 12.9069 6.60455 12.8092 6.77252 12.7116C7.09635 12.5201 7.41275 12.3444 7.69009 12.192C7.53384 12.6139 7.42056 13.1217 7.36197 13.8561C7.29166 14.7155 7.64713 15.8287 8.10806 16.2662C8.31119 16.4576 8.55689 16.4616 8.70924 16.4616C9.2483 16.4616 9.49049 16.0162 9.75963 15.485C10.0917 14.8366 10.3846 14.0826 10.3846 14.0826C10.3846 14.0826 10.0174 16.1217 11.0213 16.1217C11.3881 16.1217 11.7553 15.6491 11.9198 15.4069V15.4108C11.9198 15.4108 11.9276 15.3951 11.9471 15.3639C11.9862 15.3053 12.0057 15.2701 12.0057 15.2701V15.2584C12.1542 15.0045 12.4784 14.4225 12.9663 13.4616C13.5991 12.2194 14.2042 10.6686 14.2042 10.6686C14.2626 11.0095 14.3435 11.3462 14.4463 11.6764C14.5557 12.0475 14.7862 12.4537 14.9698 12.8483C14.8213 13.0514 14.7315 13.1686 14.7315 13.1686C14.7318 13.1716 14.7332 13.1744 14.7354 13.1764C14.6182 13.3326 14.4854 13.5006 14.3487 13.6647C13.8491 14.2584 13.2549 14.9381 13.1768 15.1334C13.0831 15.3639 13.1065 15.5358 13.2862 15.6686C13.419 15.7701 13.6534 15.7858 13.8991 15.7662C14.3483 15.735 14.6647 15.6256 14.817 15.5553C15.0979 15.4546 15.3633 15.3152 15.6057 15.1412C16.094 14.7819 16.3909 14.2662 16.3635 13.5866C16.3479 13.2116 16.2268 12.8366 16.0784 12.485C16.1213 12.4225 16.1682 12.3561 16.2112 12.2897C16.9842 11.1608 17.5819 9.92171 17.5819 9.92171C17.6404 10.2626 17.7213 10.5993 17.8241 10.9295C17.9178 11.2459 18.101 11.5936 18.269 11.9334C17.5428 12.5233 17.0936 13.2069 16.9374 13.6561C16.6483 14.4881 16.8749 14.8631 17.3006 14.9491C17.492 14.9881 17.7655 14.8983 17.9686 14.8123C18.2703 14.7119 18.5547 14.5656 18.812 14.3787C19.3003 14.0194 19.7725 13.5155 19.7413 12.8319C19.7295 12.5233 19.6436 12.2147 19.5303 11.9178C20.1436 11.66 20.9401 11.5194 21.9557 11.6366C24.1307 11.8905 24.5565 13.2498 24.4745 13.8162C24.3924 14.3826 23.9354 14.6991 23.7831 14.7928C23.6307 14.8866 23.5838 14.9217 23.5956 14.992C23.6151 15.0936 23.6854 15.0897 23.8143 15.0662C23.994 15.035 24.9545 14.6053 24.9975 13.5545C25.06 12.2264 23.7831 10.7655 21.521 10.7772L21.5221 10.778ZM4.75728 16.4303C4.03892 17.2155 3.03111 17.5123 2.59791 17.2623C2.13306 16.992 2.31666 15.8366 3.20299 14.9998C3.74205 14.492 4.43697 14.0233 4.89791 13.7342C5.00338 13.6717 5.15572 13.578 5.34322 13.4647C5.37447 13.4451 5.3901 13.4373 5.3901 13.4373C5.42525 13.4139 5.46431 13.3944 5.50338 13.3709C5.8272 14.5584 5.5151 15.6053 4.75728 16.4295V16.4303ZM10.0057 12.86C9.75572 13.4733 9.22877 15.0358 8.90845 14.9537C8.63502 14.8834 8.46705 13.692 8.85377 12.5201C9.04908 11.9303 9.46314 11.2272 9.70924 10.9537C10.1034 10.5123 10.537 10.3717 10.6385 10.5475C10.7753 10.778 10.162 12.4772 10.0057 12.86ZM14.3417 14.9303C14.2362 14.985 14.1385 15.0201 14.0917 14.9928C14.0565 14.9733 14.1346 14.8991 14.1346 14.8991C14.1346 14.8991 14.6776 14.317 14.8924 14.0514C15.0174 13.8951 15.162 13.7116 15.3178 13.5084C15.3178 13.528 15.3217 13.5475 15.3217 13.5709C15.3167 14.2701 14.6452 14.7428 14.3405 14.9303H14.3417ZM17.6846 14.1686C17.6065 14.1139 17.6182 13.9303 17.8799 13.36C17.9815 13.1373 18.2155 12.7623 18.6221 12.403C18.6682 12.539 18.6932 12.6813 18.6963 12.8248C18.6924 13.7037 18.0635 14.0319 17.685 14.1686H17.6846Z" fill="#FAFAFA"/>
</svg>
