<svg width="22" height="22" viewBox="0 0 22 22" fill="none" xmlns="http://www.w3.org/2000/svg">
<path d="M21.4746 8.2276C21.0987 6.71881 20.3858 5.58112 18.8672 5.58112H16.9092V7.89557C16.9092 9.69245 15.3858 11.2061 13.6475 11.2061H8.43265C7.00687 11.2061 5.82523 12.4268 5.82523 13.8575V18.8282C5.82523 20.2442 7.0557 21.0743 8.43265 21.4796C10.083 21.963 11.67 22.0508 13.6475 21.4796C14.961 21.0987 16.2549 20.3321 16.2549 18.8282V16.8409H11.045V16.1768H18.8672C20.3858 16.1768 20.9473 15.1173 21.4746 13.5303C22.0215 11.8946 21.9971 10.3223 21.4746 8.2276V8.2276ZM13.9746 18.1641C14.5166 18.1641 14.9561 18.6085 14.9561 19.1553C14.9561 19.7071 14.5166 20.1514 13.9746 20.1514C13.4375 20.1514 12.9932 19.7022 12.9932 19.1553C12.9981 18.6036 13.4375 18.1641 13.9746 18.1641ZM8.1934 10.5518H13.4082C14.8584 10.5518 16.0157 9.35553 16.0157 7.90045V2.92487C16.0157 1.50885 14.8243 0.449282 13.4082 0.210024C11.6602 -0.0780619 9.76078 -0.0634134 8.1934 0.214907C5.98636 0.605532 5.58597 1.42096 5.58597 2.92975V4.91705H10.8057V5.58112H3.62797C2.10941 5.58112 0.781287 6.4942 0.366248 8.2276C-0.112268 10.2149 -0.131799 11.4551 0.366248 13.5303C0.737341 15.0733 1.62113 16.1768 3.13969 16.1768H4.93168V13.794C4.93168 12.0704 6.42094 10.5518 8.1934 10.5518ZM7.86625 3.58893C7.32426 3.58893 6.8848 3.14459 6.8848 2.59772C6.88968 2.04596 7.32426 1.60163 7.86625 1.60163C8.40336 1.60163 8.84769 2.05084 8.84769 2.59772C8.84769 3.14459 8.40824 3.58893 7.86625 3.58893V3.58893Z" fill="#FAFAFA"/>
</svg>
